<?xml version="1.0" standalone="no"?>
<!DOCTYPE svg PUBLIC "-//W3C//DTD SVG 20010904//EN"
 "http://www.w3.org/TR/2001/REC-SVG-20010904/DTD/svg10.dtd">
<svg version="1.0" xmlns="http://www.w3.org/2000/svg"
 width="550.000000pt" height="550.000000pt" viewBox="0 0 550.000000 550.000000"
 preserveAspectRatio="xMidYMid meet">
<metadata>
Created by potrace 1.14, written by Peter Selinger 2001-2017
</metadata>
<g transform="translate(0.000000,550.000000) scale(0.100000,-0.100000)"
fill="#000000" stroke="none">
<path d="M2589 5356 c-2 -2 -38 -6 -79 -9 -270 -22 -588 -115 -871 -257 -103
-51 -325 -182 -339 -200 -3 -3 -27 -22 -55 -40 -27 -19 -51 -37 -53 -42 -2 -4
-8 -8 -13 -8 -13 0 -88 -68 -230 -210 -150 -150 -187 -193 -283 -330 -252
-358 -390 -724 -451 -1190 -5 -40 -5 -447 0 -499 36 -372 204 -844 407 -1144
40 -60 78 -116 83 -125 6 -9 15 -21 21 -27 6 -5 30 -35 54 -65 71 -89 308
-321 399 -389 183 -137 405 -268 561 -331 30 -12 69 -28 85 -35 99 -42 329
-112 425 -129 19 -3 46 -8 60 -11 14 -3 41 -8 60 -10 19 -3 44 -7 55 -10 91
-18 353 -24 525 -13 409 27 896 199 1240 436 186 129 403 324 518 467 31 38
59 72 62 75 16 16 94 125 133 185 252 393 401 904 400 1375 0 75 -13 312 -17
319 -2 3 -7 26 -10 51 -5 37 -24 133 -40 200 -34 140 -111 359 -172 488 -54
114 -146 282 -167 305 -7 7 -30 39 -52 72 -99 150 -241 308 -425 475 -50 45
-270 210 -294 221 -12 5 -50 27 -85 50 -251 157 -638 298 -921 334 -30 4 -64
9 -75 12 -24 6 -450 14 -456 9z m451 -442 c535 -84 1040 -388 1387 -834 154
-198 296 -472 343 -663 5 -18 15 -57 23 -87 79 -288 83 -666 11 -976 -71 -306
-207 -600 -392 -847 -112 -149 -158 -199 -170 -184 -16 19 -67 125 -112 232
-23 55 -46 109 -50 120 -124 290 -134 318 -114 331 80 57 168 156 218 246 15
26 26 49 26 50 -1 2 3 16 9 31 33 87 -15 199 -141 327 -44 45 -153 130 -166
130 -6 0 -12 3 -14 8 -7 16 -180 97 -229 107 -9 2 -33 8 -53 13 -33 10 -78 4
-126 -15 -8 -3 -18 -5 -22 -5 -5 1 -8 -2 -8 -8 0 -5 -7 -10 -15 -10 -19 0
-123 -57 -153 -84 -91 -82 -163 -182 -178 -244 -4 -15 -10 -31 -14 -37 -20
-26 -26 -170 -10 -254 4 -25 6 -49 4 -53 -3 -5 -1 -8 3 -8 9 0 43 -89 43 -111
0 -15 -24 -28 -112 -58 -58 -20 -58 -20 -69 0 -40 75 -69 199 -69 301 -1 83 7
175 17 190 2 5 6 22 8 39 3 17 18 58 35 91 16 34 30 67 30 75 0 7 4 13 8 13 4
0 16 14 26 31 25 42 173 189 191 189 8 0 15 7 15 16 0 8 4 13 9 10 5 -3 11 0
14 7 5 13 -9 15 -93 21 -16 0 -24 6 -22 16 2 12 0 12 -11 -2 -7 -9 -18 -13
-25 -9 -6 3 -43 6 -81 5 -50 -1 -69 2 -64 10 4 6 -1 5 -11 -3 -15 -13 -19 -13
-27 0 -5 8 -9 9 -9 4 0 -6 -17 -11 -37 -12 -109 -6 -311 -42 -353 -63 -8 -4
-26 -10 -40 -11 -14 -2 -27 -6 -30 -9 -3 -3 -30 -14 -60 -24 -30 -11 -89 -36
-130 -57 -326 -159 -388 -180 -529 -173 -143 7 -260 67 -368 190 -52 58 -123
184 -143 254 -51 171 -52 369 -5 493 5 12 2 17 -9 17 -9 0 -16 -4 -16 -9 0 -5
-14 -23 -30 -41 -36 -39 -94 -140 -122 -213 -55 -143 -75 -393 -43 -542 9 -38
17 -82 20 -96 8 -46 55 -161 103 -254 88 -170 253 -357 408 -462 33 -23 43
-49 26 -69 -5 -5 -17 -31 -27 -59 -10 -27 -26 -68 -36 -90 -10 -22 -49 -116
-88 -210 -89 -217 -109 -263 -122 -271 -21 -13 -185 184 -282 339 -159 253
-268 548 -312 842 -3 17 -9 57 -14 90 -11 77 -7 397 7 496 45 318 163 622 341
884 93 136 132 185 246 300 197 200 375 330 615 451 94 47 365 146 430 157 14
3 66 12 115 22 188 35 435 39 625 9z m544 -2296 c-5 -8 -3 -8 7 -2 19 12 79
14 79 2 0 -5 4 -7 10 -3 13 8 61 -5 54 -16 -3 -5 0 -10 5 -10 6 -1 16 -2 21
-3 6 0 21 -14 35 -31 13 -16 29 -35 33 -41 5 -5 15 -20 21 -32 10 -19 9 -22
-6 -23 -14 0 -15 -2 -3 -6 8 -3 18 -11 22 -17 10 -15 10 -58 0 -52 -4 2 -9 -5
-9 -17 -2 -17 0 -19 7 -7 8 12 10 10 10 -8 0 -15 -4 -21 -12 -16 -6 4 -8 3 -5
-4 8 -12 -2 -44 -12 -38 -3 2 -7 -7 -8 -21 -2 -36 -71 -97 -124 -109 -50 -11
-118 -14 -124 -4 -3 5 -15 10 -25 10 -44 0 -149 112 -136 145 3 9 2 13 -4 10
-6 -3 -10 4 -11 17 -4 93 -4 98 10 93 11 -4 11 -3 2 9 -10 11 -8 23 8 54 23
45 99 115 117 108 7 -3 18 2 24 10 15 17 24 19 14 2z m-1532 -899 c117 -43
113 -39 116 -100 6 -90 -17 -167 -74 -254 -8 -13 -11 -26 -6 -28 12 -8 175 49
244 86 35 18 97 66 142 111 l81 78 90 -2 c152 -4 163 -5 169 -10 8 -8 -21
-125 -46 -190 -33 -86 -64 -143 -103 -194 -20 -27 -34 -51 -30 -54 9 -9 137
25 201 54 155 70 251 161 320 303 26 53 50 103 54 111 4 8 22 19 41 24 19 4
94 28 167 53 74 25 135 43 136 41 2 -2 10 -21 18 -43 9 -22 32 -74 51 -115 20
-41 51 -113 70 -160 19 -47 58 -141 87 -210 60 -144 82 -201 78 -205 -2 -2
-52 -31 -113 -64 -207 -116 -459 -199 -715 -236 -68 -10 -406 -13 -490 -4
-239 24 -498 101 -725 215 -169 84 -172 87 -158 122 28 69 135 320 148 347 7
17 23 55 35 85 12 30 39 96 60 145 21 50 41 98 44 108 7 23 10 22 108 -14z"/>
<path d="M2568 4542 l-88 -3 -19 -42 c-10 -23 -65 -157 -121 -297 -56 -140
-108 -268 -115 -285 -25 -55 -135 -325 -135 -330 0 -3 -9 -24 -19 -48 -11 -23
-40 -96 -66 -162 -26 -66 -53 -133 -60 -150 -7 -16 -39 -93 -70 -170 -31 -77
-60 -144 -65 -149 -5 -5 -6 -14 -3 -22 4 -10 9 -9 24 5 11 10 32 24 47 32 15
8 36 22 46 31 10 10 22 15 26 13 4 -3 13 2 20 10 7 8 19 15 26 15 8 0 14 3 14
8 0 7 72 46 115 62 11 4 31 13 45 19 14 7 32 13 40 14 8 2 20 5 25 9 13 8 125
39 150 41 23 2 45 19 38 30 -2 4 0 7 5 7 5 0 9 6 10 13 1 22 10 55 21 75 6 11
7 22 4 26 -3 3 -1 6 6 6 7 0 9 5 6 10 -3 6 -1 10 4 10 6 0 10 3 10 8 -1 4 0
10 1 15 1 4 4 12 5 17 1 6 4 12 5 15 1 3 4 10 5 15 1 6 4 12 5 15 1 3 3 8 4
13 4 25 39 101 44 98 4 -2 8 10 9 27 2 18 7 33 13 35 5 2 10 15 10 28 0 13 5
24 12 24 6 0 9 3 5 6 -3 3 -1 19 5 35 7 21 15 28 26 24 12 -4 12 -3 3 9 -9 10
-9 20 1 42 7 16 16 32 21 35 5 3 9 10 8 15 -1 20 12 54 20 54 5 0 9 3 8 8 -2
15 14 52 23 52 5 0 7 3 5 8 -3 4 3 22 12 40 l17 34 27 -59 c40 -90 77 -193 69
-193 -4 0 -2 -4 4 -8 7 -4 14 -18 15 -32 2 -14 10 -31 17 -38 7 -8 10 -18 7
-23 -4 -5 -2 -9 3 -9 8 0 37 -80 32 -89 -1 -2 3 -7 10 -11 6 -4 12 -17 13 -28
1 -12 6 -22 11 -22 5 0 6 -3 3 -7 -4 -3 -2 -12 4 -20 6 -7 8 -13 3 -13 -5 0
-4 -4 2 -8 7 -4 14 -18 15 -32 2 -14 8 -28 13 -32 5 -3 10 -15 11 -26 1 -11 8
-28 16 -38 8 -9 13 -20 13 -23 -1 -3 5 -23 13 -43 14 -35 18 -38 57 -39 22 -1
44 -1 48 0 35 5 367 -75 410 -99 10 -6 26 -10 37 -10 18 0 18 2 6 28 -25 51
-53 117 -98 227 -24 61 -79 196 -122 300 -42 105 -83 204 -90 220 -8 17 -26
62 -41 100 -14 39 -32 84 -40 100 -7 17 -27 66 -44 110 -18 44 -36 89 -41 100
-40 91 -99 237 -99 245 0 5 -1 11 -2 12 -7 4 -391 13 -470 10z"/>
<path d="M2675 3751 c-3 -5 -2 -12 3 -15 5 -3 9 1 9 9 0 17 -3 19 -12 6z"/>
<path d="M2599 3573 c-13 -16 -12 -17 4 -4 9 7 17 15 17 17 0 8 -8 3 -21 -13z"/>
<path d="M2930 3461 c0 -6 4 -13 10 -16 6 -3 7 1 4 9 -7 18 -14 21 -14 7z"/>
<path d="M3686 2602 c-3 -5 1 -9 9 -9 8 0 12 4 9 9 -3 4 -7 8 -9 8 -2 0 -6 -4
-9 -8z"/>
<path d="M3497 2555 c-4 -8 -3 -16 1 -19 4 -3 9 4 9 15 2 23 -3 25 -10 4z"/>
<path d="M3676 2558 c3 -4 11 -5 19 -1 21 7 19 12 -4 10 -11 0 -18 -5 -15 -9z"/>
<path d="M3577 2473 c5 -12 -9 -18 -30 -14 -5 1 -6 -3 -2 -9 4 -6 1 -17 -5
-25 -7 -8 -9 -15 -4 -15 5 0 2 -5 -6 -10 -12 -8 -12 -10 5 -10 17 0 17 -2 5
-10 -10 -6 -11 -10 -2 -10 6 0 12 -7 12 -16 0 -17 14 -32 49 -52 20 -12 25
-12 32 0 6 8 9 9 9 1 0 -9 19 -11 40 -3 3 1 8 2 12 1 14 -1 46 82 42 107 -5
27 -35 62 -54 62 -5 0 -10 4 -10 8 0 4 -22 8 -49 7 -34 0 -47 -4 -44 -12z"/>
<path d="M3816 2482 c-3 -5 1 -9 9 -9 8 0 12 4 9 9 -3 4 -7 8 -9 8 -2 0 -6 -4
-9 -8z"/>
<path d="M3830 2436 c0 -2 7 -7 16 -10 8 -3 12 -2 9 4 -6 10 -25 14 -25 6z"/>
<path d="M3446 2398 c3 -5 10 -6 15 -3 13 9 11 12 -6 12 -8 0 -12 -4 -9 -9z"/>
<path d="M3495 2400 c-3 -5 -1 -10 4 -10 6 0 11 5 11 10 0 6 -2 10 -4 10 -3 0
-8 -4 -11 -10z"/>
</g>
</svg>
